<svg id="Capa_1" enable-background="new 0 0 512 512" height="512" viewBox="0 0 512 512" width="512" xmlns="http://www.w3.org/2000/svg"><g><path d="m232.161 10.315v99.827c80.496 0 145.751 65.255 145.751 145.751h99.828c5.862 0 10.548-4.886 10.306-10.743-5.485-132.898-112.244-239.657-245.142-245.141-5.858-.242-10.743 4.443-10.743 10.306z" fill="#f6e266"/><path d="m427.884 199.155c0 19.472-2.104 38.451-6.061 56.739h55.919c5.848 0 10.546-4.863 10.305-10.706-3.366-81.854-45.152-153.794-107.802-198.27 30.024 43.189 47.639 95.652 47.639 152.237z" fill="#f1d333"/><path d="m335.222 358.956c-26.376 26.376-62.814 42.69-103.062 42.69s-76.686-16.314-103.062-42.69l-70.588 70.588c-4.138 4.138-4.017 10.902.29 14.864 45.612 41.966 106.494 67.592 173.361 67.592s127.748-25.626 173.36-67.592c4.307-3.963 4.428-10.726.29-14.864z" fill="#c8ea73"/><path d="m160.846 466.192c-34.912 0-68.255-6.709-98.822-18.893 45.239 40.241 104.827 64.7 170.136 64.7 66.867 0 127.748-25.626 173.36-67.592 4.307-3.963 4.428-10.726.29-14.864l-49.005-49.005c-48.776 52.671-118.51 85.654-195.959 85.654z" fill="#b7e445"/><path d="m377.912 255.894c0 40.248-16.314 76.686-42.69 103.062l44.169 44.169c37.68-37.68 60.985-89.734 60.985-147.231z" fill="#dd5790"/><path d="m421.823 255.894c-10.276 47.485-33.175 90.26-65.017 124.645l22.586 22.586c37.68-37.68 60.985-89.734 60.985-147.231z" fill="#da387d"/><path d="m86.409 255.894c0-80.496 65.255-145.751 145.751-145.751v-62.466c-114.995 0-208.216 93.222-208.216 208.216 0 57.497 23.305 109.551 60.985 147.231l44.169-44.169c-26.375-26.375-42.689-62.813-42.689-103.061z" fill="#9dc6fb"/><g><circle cx="232.161" cy="206.963" fill="#f1d0a5" r="41.643"/><path d="m252.873 170.842c3.507 6.102 5.522 13.17 5.522 20.713 0 22.999-18.644 41.643-41.643 41.643-7.543 0-14.611-2.016-20.713-5.522 7.186 12.503 20.665 20.93 36.121 20.93 22.999 0 41.643-18.644 41.643-41.643.001-15.456-8.426-28.935-20.93-36.121z" fill="#f1b986"/><g><path d="m155.12 290.25v25.091c0 5.692 4.614 10.306 10.306 10.306h133.468c5.692 0 10.306-4.614 10.306-10.306v-25.091c0-22.999-18.644-41.643-41.643-41.643h-70.794c-22.998-.001-41.643 18.644-41.643 41.643z" fill="#e49542"/><path d="m267.557 248.606h-24.986c22.999 0 41.643 18.644 41.643 41.643v35.397h14.68c5.692 0 10.306-4.614 10.306-10.306v-25.09c.001-22.999-18.644-41.644-41.643-41.644z" fill="#e28424"/></g></g><g fill="#e28424"><path d="m206.575 325.646v-20.822c0-4.269-3.461-7.73-7.73-7.73s-7.73 3.46-7.73 7.73v20.822z"/><path d="m273.205 325.646v-20.822c0-4.269-3.461-7.73-7.73-7.73s-7.73 3.46-7.73 7.73v20.822z"/></g></g></svg>