<svg id="Capa_1" enable-background="new 0 0 512 512" height="512" viewBox="0 0 512 512" width="512" xmlns="http://www.w3.org/2000/svg"><g><path d="m208.053 384.796v31.521c0 12.054-5.776 23.247-15.263 29.575l-22.915 15.285h172.249l-22.915-15.285c-9.487-6.328-15.263-17.521-15.263-29.575v-31.521c-31.532 0-64.361 0-95.893 0z" fill="#b1dbfc"/><path d="m208.053 384.796v31.521c0 12.054-5.776 23.247-15.263 29.575l-22.915 15.285h55.596l.483-.322c9.487-6.328 15.263-17.521 15.263-29.575v-21.822c0-5.357 4.342-9.699 9.699-9.699h53.029v-14.963z" fill="#8bcaff"/><path d="m358.16 460.071h-204.32c-5.689 0-10.301 4.612-10.301 10.301v11.535c0 5.689 4.612 10.301 10.301 10.301h204.32c5.689 0 10.301-4.612 10.301-10.301v-11.535c0-5.689-4.612-10.301-10.301-10.301z" fill="#dfebfa"/><path d="m200.63 481.907v-11.535c0-5.689 4.612-10.301 10.301-10.301h-57.091c-5.689 0-10.301 4.612-10.301 10.301v11.535c0 5.689 4.612 10.301 10.301 10.301h57.091c-5.689 0-10.301-4.611-10.301-10.301z" fill="#b1dbfc"/><g><g><path d="m482.31 19.791h-452.621c-16.371 0-29.689 13.318-29.689 29.689v306.986c0 16.371 13.318 29.689 29.689 29.689h452.621c16.371 0 29.689-13.318 29.689-29.689v-306.986c.001-16.371-13.318-29.689-29.689-29.689z" fill="#695d67"/></g></g><path d="m34.342 356.466v-306.986c0-16.371 13.318-29.689 29.689-29.689h-34.342c-16.371 0-29.689 13.318-29.689 29.689v306.986c0 16.371 13.318 29.689 29.689 29.689h34.341c-16.37.001-29.688-13.318-29.688-29.689z" fill="#554e56"/><g><path d="m32.137 88.075v2.06 259.611c0 2.36 1.912 4.272 4.272 4.272h439.182c2.359 0 4.272-1.912 4.272-4.272 0-6.921 0-186.243 0-261.671z" fill="#dfebfa"/></g><path d="m63.045 349.746v-259.61-2.06h-30.908v2.06 259.611c0 2.36 1.912 4.272 4.272 4.272h30.907c-2.359-.001-4.271-1.913-4.271-4.273z" fill="#b1dbfc"/><path d="m475.591 51.928h-398.09v38.207h402.361c0-17.883 0-30.339 0-33.936 0-2.359-1.912-4.271-4.271-4.271z" fill="#5cb3f8"/><path d="m78.531 51.928h-42.122c-2.359 0-4.272 1.912-4.272 4.272v33.936h46.394z" fill="#ff656f"/><path d="m67.315 51.928h-30.906c-2.359 0-4.272 1.912-4.272 4.272v33.936h30.906v-33.936c0-2.359 1.913-4.272 4.272-4.272z" fill="#ff4756"/><g><path d="m105.847 166.543-15.764-15.764c-5.66-5.66-5.66-14.837 0-20.498s14.838-5.661 20.498 0l5.516 5.515 13.457-13.457c5.66-5.661 14.838-5.661 20.498 0 5.66 5.66 5.66 14.837 0 20.498l-23.706 23.706c-5.661 5.66-14.839 5.66-20.499 0z" fill="#43cb8e"/></g><g><path d="m105.847 242.797-15.764-15.764c-5.66-5.66-5.66-14.837 0-20.498s14.838-5.661 20.498 0l5.516 5.515 13.457-13.457c5.66-5.661 14.838-5.661 20.498 0 5.66 5.66 5.66 14.837 0 20.498l-23.706 23.706c-5.661 5.661-14.839 5.661-20.499 0z" fill="#43cb8e"/></g><g><path d="m105.847 319.052-15.764-15.764c-5.66-5.66-5.66-14.837 0-20.498s14.838-5.661 20.498 0l5.516 5.515 13.457-13.457c5.66-5.661 14.838-5.661 20.498 0 5.66 5.66 5.66 14.837 0 20.498l-23.706 23.706c-5.661 5.661-14.839 5.661-20.499 0z" fill="#43cb8e"/></g><g fill="#8479c2"><path d="m413.649 129.194h-213.151c-5.318 0-9.629 4.311-9.629 9.629v11.236c0 5.318 4.311 9.629 9.629 9.629h213.151c5.318 0 9.629-4.311 9.629-9.629v-11.236c0-5.318-4.311-9.629-9.629-9.629z"/><path d="m413.649 205.449h-213.151c-5.318 0-9.629 4.311-9.629 9.629v11.236c0 5.318 4.311 9.629 9.629 9.629h213.151c5.318 0 9.629-4.311 9.629-9.629v-11.236c0-5.318-4.311-9.629-9.629-9.629z"/><path d="m413.649 281.704h-213.151c-5.318 0-9.629 4.311-9.629 9.629v11.236c0 5.318 4.311 9.629 9.629 9.629h213.151c5.318 0 9.629-4.311 9.629-9.629v-11.236c0-5.319-4.311-9.629-9.629-9.629z"/></g><path d="m239.606 150.058v-11.236c0-5.318 4.311-9.629 9.629-9.629h-48.737c-5.318 0-9.629 4.311-9.629 9.629v11.236c0 5.318 4.311 9.629 9.629 9.629h48.737c-5.318 0-9.629-4.311-9.629-9.629z" fill="#6e60b8"/><path d="m239.606 226.313v-11.236c0-5.318 4.311-9.629 9.629-9.629h-48.737c-5.318 0-9.629 4.311-9.629 9.629v11.236c0 5.318 4.311 9.629 9.629 9.629h48.737c-5.318 0-9.629-4.311-9.629-9.629z" fill="#6e60b8"/><path d="m239.606 302.568v-11.236c0-5.318 4.311-9.629 9.629-9.629h-48.737c-5.318 0-9.629 4.311-9.629 9.629v11.236c0 5.318 4.311 9.629 9.629 9.629h48.737c-5.318 0-9.629-4.311-9.629-9.629z" fill="#6e60b8"/></g></svg>